<svg width="17" height="17" viewBox="0 0 17 17" fill="none" xmlns="http://www.w3.org/2000/svg">
<path fill-rule="evenodd" clip-rule="evenodd" d="M8.89145 0C4.4304 0 0.813965 3.63333 0.813965 8.11521C0.813965 11.5532 2.94305 14.4923 5.94781 15.6747C5.87722 15.0326 5.81346 14.0452 5.97588 13.3442C6.12261 12.7109 6.92299 9.31042 6.92299 9.31042C6.92299 9.31042 6.68138 8.82428 6.68138 8.10557C6.68138 6.97714 7.33239 6.1347 8.14297 6.1347C8.83212 6.1347 9.16497 6.65458 9.16497 7.27789C9.16497 7.97412 8.72373 9.01513 8.49602 9.97984C8.30572 10.7876 8.89919 11.4463 9.69216 11.4463C11.1278 11.4463 12.2314 9.92549 12.2314 7.73011C12.2314 5.78712 10.8417 4.42854 8.85735 4.42854C6.55909 4.42854 5.20999 6.16045 5.20999 7.95037C5.20999 8.64779 5.47743 9.39577 5.81114 9.80229C5.87716 9.88265 5.88682 9.95309 5.86722 10.0351C5.80584 10.2914 5.66958 10.8426 5.64283 10.9554C5.6076 11.1039 5.52576 11.1354 5.37268 11.064C4.36385 10.5921 3.73311 9.11032 3.73311 7.92003C3.73311 5.36012 5.58443 3.00921 9.07022 3.00921C11.8723 3.00921 14.0499 5.0152 14.0499 7.69612C14.0499 10.493 12.2946 12.7438 9.85836 12.7438C9.0399 12.7438 8.27037 12.3166 8.00697 11.812C8.00697 11.812 7.60194 13.3614 7.50375 13.7411C7.3214 14.446 6.8291 15.3296 6.49983 15.8685C7.25558 16.1036 8.05875 16.2305 8.89145 16.2305C13.3526 16.2305 16.969 12.5972 16.969 8.11521C16.969 3.63333 13.3526 0 8.89145 0Z" fill="#999999"/>
</svg>
