<svg width="17" height="17" viewBox="0 0 17 17" fill="none" xmlns="http://www.w3.org/2000/svg">
<path fill-rule="evenodd" clip-rule="evenodd" d="M2.56186 16.2295H14.6781C15.7928 16.2295 16.6975 15.3206 16.6975 14.2008V2.02869C16.6975 0.908852 15.7928 0 14.6781 0H2.56186C1.44716 0 0.54248 0.908852 0.54248 2.02869V14.2008C0.54248 15.3206 1.44716 16.2295 2.56186 16.2295ZM12.6386 6.31733C12.6386 9.06417 10.5546 12.237 6.74601 12.237C5.57881 12.237 4.48835 11.8922 3.57559 11.3079C3.73714 11.3282 3.90273 11.3363 4.06832 11.3363C5.03762 11.3363 5.93018 11.0036 6.641 10.4437C5.73632 10.4274 4.96896 9.82696 4.70644 8.99925C4.83164 9.0236 4.96088 9.03577 5.09416 9.03577C5.28398 9.03577 5.46573 9.01143 5.63939 8.96274C4.69432 8.77204 3.97946 7.92811 3.97946 6.92188V6.89348C4.25814 7.04766 4.5772 7.14098 4.91645 7.15315C4.36314 6.77987 3.99562 6.14286 3.99562 5.42065C3.99562 5.03926 4.09659 4.68221 4.27429 4.37385C5.2961 5.63163 6.82275 6.4634 8.54326 6.5486C8.51095 6.39442 8.49075 6.23618 8.49075 6.07389C8.49075 4.92565 9.41967 3.99245 10.5626 3.99245C11.1563 3.99245 11.6935 4.24401 12.0731 4.64975C12.5457 4.55643 12.9899 4.38602 13.3898 4.14664C13.2323 4.63352 12.9051 5.04331 12.477 5.29893C12.897 5.24618 13.2969 5.13663 13.6684 4.97028C13.3898 5.38819 13.0384 5.75741 12.6345 6.04954C12.6386 6.13881 12.6386 6.22807 12.6386 6.31733Z" fill="#999999"/>
</svg>
