<svg width="17" height="17" viewBox="0 0 17 17" fill="none" xmlns="http://www.w3.org/2000/svg">
<path fill-rule="evenodd" clip-rule="evenodd" d="M15.2637 0H0.891312C0.399054 0 0 0.400893 0 0.89542V15.3341C0 15.8286 0.399054 16.2295 0.891312 16.2295H8.63458V9.95316H6.53165V7.49635H8.63458V5.68872C8.63458 3.59287 9.91028 2.45121 11.7709 2.45121C12.3979 2.44984 13.0245 2.4816 13.6482 2.54635V4.73733H12.367C11.3531 4.73733 11.1553 5.21862 11.1553 5.92936V7.49355H13.5786L13.2638 9.95036H11.1414V16.2295H15.2637C15.756 16.2295 16.155 15.8286 16.155 15.3341V0.89542C16.155 0.400893 15.756 0 15.2637 0Z" fill="#999999"/>
</svg>
