<svg width="17" height="17" viewBox="0 0 17 17" fill="none" xmlns="http://www.w3.org/2000/svg">
<path fill-rule="evenodd" clip-rule="evenodd" d="M14.038 13.8293H11.6425V10.0623C11.6425 9.16425 11.6263 8.00925 10.3967 8.00925C9.15089 8.00925 8.96062 8.98843 8.96062 9.99827V13.8293H6.56686V6.08426H8.86278V7.14278H8.89599C9.21642 6.53417 9.99728 5.89221 11.1632 5.89221C13.5901 5.89221 14.038 7.49532 14.038 9.58171V13.8293ZM3.86525 5.02663C3.09516 5.02663 2.47406 4.4009 2.47406 3.63C2.47406 2.86 3.09516 2.23426 3.86525 2.23426C4.63086 2.23426 5.25375 2.86 5.25375 3.63C5.25375 4.4009 4.63086 5.02663 3.86525 5.02663ZM2.66434 13.8293H5.06348V6.08426H2.66434V13.8293ZM15.2309 0H1.46253C0.805523 0 0.271484 0.523852 0.271484 1.17033V15.0583C0.271484 15.7047 0.805523 16.2295 1.46253 16.2295H15.2309C15.8897 16.2295 16.4264 15.7047 16.4264 15.0583V1.17033C16.4264 0.523852 15.8897 0 15.2309 0Z" fill="#999999"/>
</svg>
